#!OML:ASF H:\Punching\Project 1\Capture day 1\Session 1\female.ASF
:FULLY-SPECIFIED
:DEGREES
2003
root -0.784492 14.7034 0.681494 12.5728 -14.1106 -4.97465
lowerback -8.02627 4.20069 8.02777
upperback -10.3904 5.24665 -0.469753
thorax -5.7517 2.05336 -4.77523
lowerneck -11.0221 2.01138 8.14131
upperneck 38.6916 2.53194 -4.63071
head 15.6786 1.62598 -3.05377
rclavicle -1.46107e-014 8.34896e-015
rhumerus -2.40285 14.4263 -71.7819
rradius 130.898
rwrist -8.82903
rhand -31.2316 9.66077
rfingers 7.12502
rthumb -4.50679 -20.2713
lclavicle -1.46107e-014 8.34896e-015
lhumerus 4.13165 -11.767 55.3626
lradius 136.795
lwrist -1.71035
lhand -28.4073 4.07484
lfingers 7.12502
lthumb -1.77932 34.0472
rfemur 5.36185 1.35642 19.0187
rtibia 37.3254
rfoot -8.82122 -29.9445
rtoes -18.4081
lfemur -49.9302 -3.284 -12.9616
ltibia 51.2031
lfoot -9.32872 11.0528
ltoes 5.29572
2004
root -0.742349 14.7451 0.809975 11.8716 -13.4698 -4.69941
lowerback -7.79325 4.17199 7.47913
upperback -10.404 5.26121 -0.299905
thorax -5.94344 2.09696 -4.31138
lowerneck -11.0169 1.65104 7.77414
upperneck 39.1737 1.94891 -4.25898
head 15.8589 1.38864 -2.93437
rclavicle 1.84373e-014 4.77083e-015
rhumerus -3.54774 13.8506 -71.3347
rradius 131.288
rwrist -8.80084
rhand -31.2551 9.70869
rfingers 7.12502
rthumb -4.52946 -20.2229
lclavicle 1.84373e-014 4.77083e-015
lhumerus 3.82369 -12.9457 56.2291
lradius 136.868
lwrist -2.38527
lhand -28.2853 3.77455
lfingers 7.12502
lthumb -1.66146 33.7478
rfemur 4.15606 0.981477 18.4438
rtibia 40.5989
rfoot -5.24694 -28.6182
rtoes -15.3384
lfemur -48.5266 -3.495 -13.794
ltibia 50.551
lfoot -9.58814 10.421
ltoes 5.37102
2005
root -0.703468 14.7885 0.929136 11.1006 -12.8395 -4.38268
lowerback -7.43707 4.09174 6.85542
upperback -10.3774 5.21604 -0.136074
thorax -6.17282 2.11607 -3.82377
lowerneck -11.0094 1.32957 7.46685
upperneck 39.6063 1.41346 -3.91581
head 16.0276 1.17605 -2.82801
rclavicle -2.64632e-014 -2.15681e-014
rhumerus -4.65061 13.3212 -70.9492
rradius 131.643
rwrist -8.87395
rhand -31.2706 9.79679
rfingers 7.12502
rthumb -4.54445 -20.1345
lclavicle -2.64632e-014 -2.15681e-014
lhumerus 3.51705 -14.0171 57.0656
lradius 136.969
lwrist -3.07064
lhand -28.1387 3.49404
lfingers 7.12502
lthumb -1.5199 33.4684
rfemur 2.76259 0.529728 17.8298
rtibia 44.1583
rfoot -2.35106 -26.6202
rtoes -12.9167
lfemur -46.9776 -3.69623 -14.6495
ltibia 49.7322
lfoot -9.77472 9.8301
ltoes 5.57384
2006
root -0.667699 14.8332 1.03928 10.286 -12.2289 -3.99388
lowerback -6.99188 3.96814 6.13879
upperback -10.3137 5.11563 0.00491835
thorax -6.42214 2.11435 -3.31605
lowerneck -11.0041 1.04886 7.22823
upperneck 39.9836 0.927536 -3.60358
head 16.1807 0.989728 -2.73714
rclavicle 3.81915e-014 1.63003e-014
rhumerus -5.68772 12.8359 -70.6478
rradius 131.973
rwrist -9.0549
rhand -31.2495 9.85901
rfingers 7.12502
rthumb -4.52406 -20.0727
lclavicle 3.81915e-014 1.63003e-014
lhumerus 3.22412 -14.9947 57.861
lradius 137.093
lwrist -3.72084
lhand -27.9898 3.23843
lfingers 7.12502
lthumb -1.37602 33.2137
rfemur 1.15123 -0.000807108 17.1359
rtibia 47.9927
rfoot -0.363396 -24.0262
rtoes -11.6894
lfemur -45.3241 -3.91097 -15.5515
ltibia 48.7578
lfoot -9.87425 9.3089
ltoes 5.87864
2007
root -0.634365 14.8793 1.14181 9.4544 -11.6567 -3.50325
lowerback -6.50641 3.81607 5.31755
upperback -10.2144 4.972 0.104783
thorax -6.66233 2.09892 -2.79521
lowerneck -10.9914 0.805967 7.05159
upperneck 40.2931 0.484068 -3.30641
head 16.3062 0.827389 -2.65444
rclavicle 2.98053e-014 1.6201e-014
rhumerus -6.65746 12.3963 -70.4418
rradius 132.268
rwrist -9.30353
rhand -31.2306 9.94968
rfingers 7.12502
rthumb -4.50578 -19.9824
lclavicle 2.98053e-014 1.6201e-014
lhumerus 2.9762 -15.9221 58.6251
lradius 137.231
lwrist -4.27337
lhand -27.849 3.02084
lfingers 7.12502
lthumb -1.24005 32.997
rfemur -0.703985 -0.586281 16.3198
rtibia 52.0794
rfoot 0.704409 -20.9557
rtoes -11.7263
lfemur -43.6026 -4.1603 -16.527
ltibia 47.6528
lfoot -9.90182 8.89708
ltoes 6.31241
2008
root -0.602815 14.9256 1.23775 8.65112 -11.1304 -2.91669
lowerback -6.04087 3.64713 4.41033
upperback -10.0834 4.79356 0.158628
thorax -6.8601 2.07314 -2.27077
lowerneck -10.9848 0.602224 6.94485
upperneck 40.5392 0.084444 -3.02844
head 16.4077 0.690137 -2.58338
rclavicle 3.43276e-014 2.79044e-014
rhumerus -7.53878 11.9936 -70.3409
rradius 132.518
rwrist -9.57835
rhand -31.2191 10.0507
rfingers 7.12502
rthumb -4.49472 -19.8816
lclavicle 3.43276e-014 2.79044e-014
lhumerus 2.77622 -16.8255 59.362
lradius 137.369
lwrist -4.71759
lhand -27.7686 2.84166
lfingers 7.12502
lthumb -1.16245 32.8182
rfemur -2.84219 -1.1978 15.3901
rtibia 56.3821
rfoot 1.01861 -17.5755
rtoes -12.6664
lfemur -41.8779 -4.45736 -17.5624
ltibia 46.4564
lfoot -9.85869 8.60316
ltoes 6.84621
2009
root -0.572217 14.9708 1.32787 7.9107 -10.6507 -2.26993
lowerback -5.62935 3.47097 3.46525
upperback -9.93065 4.59097 0.171212
thorax -7.00242 2.03855 -1.76129
lowerneck -10.977 0.434629 6.90359
upperneck 40.7241 -0.276387 -2.76152
head 16.4826 0.576189 -2.52056
rclavicle -7.9048e-015 -1.14798e-014
rhumerus -8.32767 11.62 -70.3444
rradius 132.718
rwrist -9.84665
rhand -31.2029 10.1605
rfingers 7.12502
rthumb -4.47907 -19.7722
lclavicle -7.9048e-015 -1.14798e-014
lhumerus 2.6126 -17.7351 60.0811
lradius 137.499
lwrist -5.03817
lhand -27.7982 2.69455
lfingers 7.12502
lthumb -1.19099 32.671
rfemur -5.26892 -1.81949 14.3884
rtibia 60.8501
rfoot 0.748991 -14.0921
rtoes -13.9571
lfemur -40.2063 -4.79918 -18.6194
ltibia 45.2163
lfoot -9.75855 8.41864
ltoes 7.42798
2010
root -0.542125 15.0136 1.41255 7.24516 -10.2117 -1.62878
lowerback -5.27866 3.29437 2.55636
upperback -9.76066 4.3751 0.159483
thorax -7.08521 1.99516 -1.28941
lowerneck -10.9574 0.29615 6.91839
upperneck 40.8517 -0.606033 -2.50241
head 16.5284 0.481217 -2.4642
rclavicle -8.78069e-015 1.19271e-015
rhumerus -9.01926 11.2646 -70.4396
rradius 132.854
rwrist -10.0596
rhand -31.2048 10.309
rfingers 7.12502
rthumb -4.48091 -19.6236
lclavicle -8.78069e-015 1.19271e-015
lhumerus 2.47509 -18.667 60.7956
lradius 137.603
lwrist -5.25064
lhand -27.9692 2.54469
lfingers 7.12502
lthumb -1.35615 32.5201
rfemur -7.95817 -2.45811 13.3972
rtibia 65.4252
rfoot 0.137512 -10.6735
rtoes -15.1935
lfemur -38.6214 -5.16773 -19.6318
ltibia 43.985
lfoot -9.61445 8.3163
ltoes 7.99275
2011
root -0.512375 15.054 1.49218 6.64949 -9.80675 -1.07433
lowerback -4.96999 3.1202 1.76492
upperback -9.57406 4.15414 0.149776
thorax -7.11566 1.94142 -0.874143
lowerneck -10.9292 0.184233 6.98225
upperneck 40.9305 -0.905174 -2.25286
head 16.5494 0.403661 -2.41435
rclavicle -4.0813e-015 7.70291e-015
rhumerus -9.60972 10.9239 -70.6039
rradius 132.92
rwrist -10.1983
rhand -31.2189 10.4675
rfingers 7.12502
rthumb -4.4945 -19.4648
lclavicle -4.0813e-015 7.70291e-015
lhumerus 2.34725 -19.616 61.5095
lradius 137.649
lwrist -5.40305
lhand -28.3548 2.31645
lfingers 7.12502
lthumb -1.72863 32.2892
rfemur -10.8685 -3.11332 12.5241
rtibia 70.0481
rfoot -0.632717 -7.5224
rtoes -16.3125
lfemur -37.1356 -5.53798 -20.5202
ltibia 42.8126
lfoot -9.45195 8.26519
ltoes 8.50757
2012
root -0.483054 15.0927 1.56705 6.11422 -9.42627 -0.686989
lowerback -4.67752 2.949 1.16583
upperback -9.37225 3.93344 0.17126
thorax -7.1071 1.8753 -0.528713
lowerneck -10.8996 0.0947639 7.08521
upperneck 40.9766 -1.17505 -2.01889
head 16.5555 0.340977 -2.37275
rclavicle -3.3694e-014 -1.88348e-014
rhumerus -10.0886 10.5975 -70.8155
rradius 132.911
rwrist -10.2438
rhand -31.2748 10.6706
rfingers 7.12502
rthumb -4.54847 -19.2605
lclavicle -3.3694e-014 -1.88348e-014
lhumerus 2.21374 -20.5681 62.2364
lradius 137.629
lwrist -5.51944
lhand -28.9339 1.97136
lfingers 7.12502
lthumb -2.2879 31.9388
rfemur -13.962 -3.77759 11.8794
rtibia 74.6669
rfoot -1.41702 -4.79313
rtoes -17.2429
lfemur -35.7494 -5.87751 -21.2077
ltibia 41.7381
lfoot -9.29633 8.22661
ltoes 8.96359
2013
root -0.454468 15.1304 1.63738 5.62105 -9.05675 -0.518891
lowerback -4.37239 2.77696 0.800963
upperback -9.15742 3.71184 0.248942
thorax -7.07797 1.79417 -0.252538
lowerneck -10.8547 0.0243847 7.20624
upperneck 40.9932 -1.41417 -1.79729
head 16.5444 0.290891 -2.33395
rclavicle -3.62409e-014 -1.71949e-014
rhumerus -10.4634 10.291 -71.0396
rradius 132.841
rwrist -10.2179
rhand -31.3224 10.8272
rfingers 7.12502
rthumb -4.59447 -19.103
lclavicle -3.62409e-014 -1.71949e-014
lhumerus 2.0692 -21.5012 62.9898
lradius 137.535
lwrist -5.61714
lhand -29.6794 1.45349
lfingers 7.12502
lthumb -3.00789 31.412
rfemur -17.2006 -4.44837 11.5384
rtibia 79.238
rfoot -2.14927 -2.58827
rtoes -18.0268
lfemur -34.4505 -6.1727 -21.6451
ltibia 40.7841
lfoot -9.16805 8.18485
ltoes 9.36591
2014
root -0.426987 15.1676 1.70344 5.16439 -8.6877 -0.579116
lowerback -4.0509 2.5976 0.668395
upperback -8.93097 3.48305 0.394451
thorax -7.0339 1.69583 -0.0330183
lowerneck -10.8018 -0.0262916 7.33712
upperneck 40.9952 -1.61589 -1.59758
head 16.526 0.254049 -2.30017
rclavicle -3.33958e-014 -2.03754e-014
rhumerus -10.7223 10.0089 -71.2584
rradius 132.724
rwrist -10.1324
rhand -31.3413 10.9114
rfingers 7.12502
rthumb -4.61274 -19.0184
lclavicle -3.33958e-014 -2.03754e-014
lhumerus 1.89969 -22.387 63.7772
lradius 137.432
lwrist -5.6507
lhand -30.3527 0.981348
lfingers 7.12502
lthumb -3.6581 30.9297
rfemur -20.5695 -5.13359 11.5214
rtibia 83.7299
rfoot -2.77809 -0.929259
rtoes -18.6337
lfemur -33.2359 -6.41962 -21.8272
ltibia 39.9541
lfoot -9.07783 8.12855
ltoes 9.7288
2015
root -0.400627 15.2047 1.76601 4.72286 -8.31913 -0.83446
lowerback -3.7051 2.40312 0.724
upperback -8.68221 3.23809 0.607794
thorax -6.97177 1.57928 0.154066
lowerneck -10.7589 -0.057512 7.46304
upperneck 40.9858 -1.77732 -1.42186
head 16.5063 0.22917 -2.26966
rclavicle 1.02374e-014 8.44835e-015
rhumerus -10.8425 9.77748 -71.4628
rradius 132.551
rwrist -9.98983
rhand -31.3488 10.9467
rfingers 7.12502
rthumb -4.61999 -18.9829
lclavicle 1.02374e-014 8.44835e-015
lhumerus 1.71417 -23.1942 64.5984
lradius 137.315
lwrist -5.68417
lhand -30.9649 0.508213
lfingers 7.12502
lthumb -4.24925 30.4456
rfemur -24.0376 -5.83702 11.7902
rtibia 88.1135
rfoot -3.29563 0.21765
rtoes -19.0385
lfemur -32.0766 -6.6213 -21.7963
ltibia 39.2305
lfoot -9.02537 8.06709
ltoes 10.0245
2016
root -0.375454 15.2417 1.82574 4.28612 -7.95138 -1.2301
lowerback -3.34313 2.1938 0.910361
upperback -8.42087 2.97761 0.878017
thorax -6.90137 1.44855 0.329089
lowerneck -10.7111 -0.0703796 7.58886
upperneck 40.9823 -1.89415 -1.28528
head 16.4906 0.217435 -2.24953
rclavicle 7.15625e-015 1.65985e-014
rhumerus -10.854 9.58851 -71.6329
rradius 132.371
rwrist -9.86442
rhand -31.3073 10.8922
rfingers 7.12502
rthumb -4.57986 -19.0383
lclavicle 7.15625e-015 1.65985e-014
lhumerus 1.51555 -23.916 65.4626
lradius 137.193
lwrist -5.75627
lhand -31.4456 0.0431822
lfingers 7.12502
lthumb -4.71342 29.9708
rfemur -27.5909 -6.56821 12.2793
rtibia 92.3681
rfoot -3.71021 0.937038
rtoes -19.2495
lfemur -30.9525 -6.7937 -21.6123
ltibia 38.5794
lfoot -8.99506 8.00595
ltoes 10.296
